<?xml version="1.0" encoding="UTF-8" standalone="no"?>
<!DOCTYPE svg PUBLIC "-//W3C//DTD SVG 1.1//EN" "http://www.w3.org/Graphics/SVG/1.1/DTD/svg11.dtd">
<svg width="100%" height="100%" viewBox="0 0 800 800" version="1.1" xmlns="http://www.w3.org/2000/svg" xmlns:xlink="http://www.w3.org/1999/xlink" xml:space="preserve" xmlns:serif="http://www.serif.com/" style="fill-rule:evenodd;clip-rule:evenodd;">
    <g id="Logo" transform="matrix(1,0,0,1,-938.112863,0)">
        <rect x="938.113" y="0" width="800" height="800" style="fill:none;"/>
        <clipPath id="_clip1">
            <rect x="938.113" y="0" width="800" height="800"/>
        </clipPath>
        <g clip-path="url(#_clip1)">
            <g transform="matrix(1,0,0,1,938.112863,0)">
                <rect x="0" y="0" width="800" height="800" style="fill:url(#_Linear2);"/>
            </g>
            <g transform="matrix(1.333333,0,0,1.333333,804.77953,-53.333333)">
                <path d="M400,150L620,530L550,530L400,270L250,530L180,530L400,150Z" style="fill:none;fill-rule:nonzero;stroke:rgb(56,189,248);stroke-opacity:0.25;stroke-width:2px;"/>
            </g>
            <g transform="matrix(1.333333,0,0,1.333333,804.77953,-53.333333)">
                <path d="M400,210L560,490L500,490L400,315L300,490L240,490L400,210Z" style="fill:none;fill-rule:nonzero;stroke:rgb(56,189,248);stroke-opacity:0.55;stroke-width:3px;"/>
            </g>
            <g transform="matrix(1.333333,0,0,1.333333,804.77953,-53.333333)">
                <path d="M400,270L500,450L450,450L400,360L350,450L300,450L400,270Z" style="fill:url(#_Linear3);fill-rule:nonzero;stroke:rgb(56,189,248);stroke-width:4px;"/>
            </g>
            <g transform="matrix(1.333333,0,0,1.333333,804.77953,-53.333333)">
                <path d="M400,100L400,130" style="fill:none;fill-rule:nonzero;stroke:rgb(100,116,139);stroke-opacity:0.4;stroke-width:2px;"/>
            </g>
            <g transform="matrix(1.333333,0,0,1.333333,804.77953,-53.333333)">
                <path d="M400,550L400,580" style="fill:none;fill-rule:nonzero;stroke:rgb(100,116,139);stroke-opacity:0.4;stroke-width:2px;"/>
            </g>
            <g transform="matrix(1.333333,0,0,1.333333,804.77953,-53.333333)">
                <path d="M120,530L150,530" style="fill:none;fill-rule:nonzero;stroke:rgb(100,116,139);stroke-opacity:0.4;stroke-width:2px;"/>
            </g>
            <g transform="matrix(1.333333,0,0,1.333333,804.77953,-53.333333)">
                <path d="M650,530L680,530" style="fill:none;fill-rule:nonzero;stroke:rgb(100,116,139);stroke-opacity:0.4;stroke-width:2px;"/>
            </g>
            <g transform="matrix(1.333333,0,0,1.333333,804.77953,-53.333333)">
                <path d="M280,530L520,530" style="fill:none;fill-rule:nonzero;stroke:rgb(56,189,248);stroke-opacity:0.4;stroke-width:1.5px;"/>
            </g>
        </g>
    </g>
    <defs>
        <linearGradient id="_Linear2" x1="0" y1="0" x2="1" y2="0" gradientUnits="userSpaceOnUse" gradientTransform="matrix(800,800,-800,800,0,0)"><stop offset="0" style="stop-color:rgb(11,15,25);stop-opacity:1"/><stop offset="1" style="stop-color:rgb(17,24,39);stop-opacity:1"/></linearGradient>
        <linearGradient id="_Linear3" x1="0" y1="0" x2="1" y2="0" gradientUnits="userSpaceOnUse" gradientTransform="matrix(0,-180,180,0,300,450)"><stop offset="0" style="stop-color:rgb(56,189,248);stop-opacity:1"/><stop offset="1" style="stop-color:rgb(2,132,199);stop-opacity:1"/></linearGradient>
    </defs>
</svg>
